# xmcd
#
# Track frame offsets: 
#        150
#        14217
#        26772
#        38540
#        53405
#        69087
#        79257
#        90525
#        101420
#        114575
#        126215
#        139805
#        152495
#        165380
#        178820
#        191420
#        205072
#        218260
#        229277
#        240807
#
# Disc length: 3389 seconds
#
# Revision: 6
# Processed by: cddbd v1.5.2PL0 Copyright (c) Steve Scherf et al.
# Submitted via: ExactAudioCopy v1.3
#
DISCID=f60d3b14
DTITLE=Muddy Waters - Top of the Boogaloo
DYEAR=1988
DGENRE=Blues
TTITLE0=You Gonna Need My Help
TTITLE1=The Stuff You Gotta Watch
TTITLE2=You Gonna Miss Me
TTITLE3=Rock Me
TTITLE4=Iodine In My Coffee
TTITLE5=Mean Red Spider
TTITLE6=I Can't Call Her Sugar
TTITLE7=Diamonds At Your Feet
TTITLE8=You Can't Lose What You Ain't Never Had
TTITLE9=Settin' Here Drinkin'
TTITLE10=I Got A Rich Man's Woman
TTITLE11=Mean Mistreater
TTITLE12=Forty Days And Forty Nights
TTITLE13=Rollin' And Tumblin'
TTITLE14=All Aboard
TTITLE15=I'm Ready
TTITLE16=She Moves Me
TTITLE17=I Feel So Good
TTITLE18=Goin' Home
TTITLE19=Sad Letter
EXTD=YEAR: 0
EXTT0=
EXTT1=
EXTT2=
EXTT3=
EXTT4=
EXTT5=
EXTT6=
EXTT7=
EXTT8=
EXTT9=
EXTT10=
EXTT11=
EXTT12=
EXTT13=
EXTT14=
EXTT15=
EXTT16=
EXTT17=
EXTT18=
EXTT19=
PLAYORDER=
